<svg width="21" height="15" viewBox="0 0 21 15" fill="none" xmlns="http://www.w3.org/2000/svg">
<path d="M19.7959 2.54594L7.79593 14.5459C7.69141 14.6508 7.56722 14.734 7.43047 14.7908C7.29373 14.8476 7.14712 14.8768 6.99905 14.8768C6.85099 14.8768 6.70438 14.8476 6.56763 14.7908C6.43089 14.734 6.30669 14.6508 6.20218 14.5459L0.952177 9.29595C0.84753 9.1913 0.764519 9.06706 0.707885 8.93034C0.65125 8.79361 0.622101 8.64706 0.622101 8.49907C0.622101 8.35108 0.65125 8.20453 0.707885 8.0678C0.764519 7.93108 0.84753 7.80684 0.952177 7.7022C1.05682 7.59755 1.18106 7.51454 1.31779 7.4579C1.45451 7.40127 1.60106 7.37212 1.74905 7.37212C1.89705 7.37212 2.04359 7.40127 2.18032 7.4579C2.31705 7.51454 2.44128 7.59755 2.54593 7.7022L6.99999 12.1563L18.2041 0.954069C18.4154 0.742725 18.702 0.623993 19.0009 0.623993C19.2998 0.623993 19.5865 0.742725 19.7978 0.954069C20.0091 1.16541 20.1279 1.45206 20.1279 1.75094C20.1279 2.04983 20.0091 2.33648 19.7978 2.54782L19.7959 2.54594Z" fill="#6963E0"/>
</svg>
