<svg width="54" height="50" viewBox="0 0 54 50" fill="none" xmlns="http://www.w3.org/2000/svg">
<path d="M0 24C0.00330734 20.8184 1.26865 17.7681 3.51837 15.5184C5.76809 13.2687 8.81842 12.0033 12 12H21.95C22.6775 11.9575 35.355 11.065 47.4275 0.940003C48.0105 0.450384 48.7211 0.137304 49.4758 0.0375396C50.2306 -0.0622247 50.9981 0.0554708 51.6883 0.3768C52.3785 0.69813 52.9626 1.20975 53.3721 1.85155C53.7816 2.49336 53.9994 3.23869 54 4V44C53.9999 44.7615 53.7824 45.5072 53.3731 46.1494C52.9638 46.7915 52.3797 47.3035 51.6894 47.6252C50.9992 47.9468 50.2314 48.0647 49.4764 47.965C48.7215 47.8654 48.0106 47.5523 47.4275 47.0625C37.985 39.1425 28.1775 36.8725 24 36.2375V44.1675C24.0008 44.8266 23.8388 45.4758 23.5282 46.0572C23.2177 46.6385 22.7683 47.1342 22.22 47.5L19.47 49.3325C18.9385 49.6873 18.3297 49.9095 17.6946 49.9807C17.0595 50.0518 16.4166 49.9697 15.8197 49.7413C15.2229 49.5129 14.6895 49.1448 14.2641 48.6679C13.8388 48.1909 13.5339 47.619 13.375 47L10.4325 35.91C7.54568 35.5259 4.89655 34.1066 2.97764 31.9159C1.05873 29.7252 0.000610352 26.9123 0 24ZM50 43.9825V4C39.2975 12.9775 28.3425 15.25 24 15.81V32.18C28.3375 32.75 39.29 35.0175 50 43.9825ZM17.25 45.9825V46.01L20 44.1775V36H14.6L17.25 45.9825ZM12 32H20V16H12C9.87827 16 7.84344 16.8429 6.34315 18.3431C4.84286 19.8434 4 21.8783 4 24C4 26.1217 4.84286 28.1566 6.34315 29.6569C7.84344 31.1571 9.87827 32 12 32Z" fill="#6963E0"/>
</svg>
