<svg width="18" height="16" viewBox="0 0 18 16" fill="none" xmlns="http://www.w3.org/2000/svg">
<path d="M18 8.00005C18 8.19896 17.921 8.38973 17.7803 8.53038C17.6397 8.67103 17.4489 8.75005 17.25 8.75005H2.56032L8.03064 14.2194C8.10032 14.2891 8.15559 14.3718 8.19331 14.4629C8.23102 14.5539 8.25043 14.6515 8.25043 14.7501C8.25043 14.8486 8.23102 14.9462 8.19331 15.0372C8.15559 15.1283 8.10032 15.211 8.03064 15.2807C7.96095 15.3504 7.87823 15.4056 7.78718 15.4433C7.69614 15.4811 7.59856 15.5005 7.50001 15.5005C7.40146 15.5005 7.30388 15.4811 7.21284 15.4433C7.12179 15.4056 7.03907 15.3504 6.96939 15.2807L0.219385 8.53068C0.149653 8.46102 0.0943336 8.3783 0.0565904 8.28726C0.0188472 8.19621 -0.000579834 8.09861 -0.000579834 8.00005C-0.000579834 7.90149 0.0188472 7.80389 0.0565904 7.71284C0.0943336 7.6218 0.149653 7.53908 0.219385 7.46942L6.96939 0.719426C7.11012 0.578695 7.30099 0.499634 7.50001 0.499634C7.69903 0.499634 7.8899 0.578695 8.03064 0.719426C8.17137 0.860156 8.25043 1.05103 8.25043 1.25005C8.25043 1.44907 8.17137 1.63995 8.03064 1.78068L2.56032 7.25005H17.25C17.4489 7.25005 17.6397 7.32907 17.7803 7.46972C17.921 7.61037 18 7.80114 18 8.00005Z" fill="#A5FBAC"/>
</svg>
