<svg width="64" height="64" viewBox="0 0 64 64" fill="none" xmlns="http://www.w3.org/2000/svg">
<path d="M37.4149 34.585C37.2291 34.399 37.0086 34.2515 36.7658 34.1509C36.523 34.0502 36.2627 33.9984 35.9999 33.9984C35.7371 33.9984 35.4768 34.0502 35.234 34.1509C34.9912 34.2515 34.7706 34.399 34.5849 34.585L29.9999 39.1725L24.8274 34L29.4149 29.415C29.7902 29.0397 30.001 28.5307 30.001 28C30.001 27.4693 29.7902 26.9603 29.4149 26.585C29.0396 26.2097 28.5306 25.9989 27.9999 25.9989C27.4692 25.9989 26.9602 26.2097 26.5849 26.585L21.9999 31.1725L17.4149 26.585C17.0396 26.2097 16.5306 25.9989 15.9999 25.9989C15.4692 25.9989 14.9602 26.2097 14.5849 26.585C14.2096 26.9603 13.9988 27.4693 13.9988 28C13.9988 28.5307 14.2096 29.0397 14.5849 29.415L16.1724 31L10.3424 36.8275C9.59933 37.5704 9.00989 38.4524 8.60774 39.4231C8.20559 40.3938 7.9986 41.4343 7.9986 42.485C7.9986 43.5357 8.20559 44.5762 8.60774 45.5469C9.00989 46.5176 9.59933 47.3996 10.3424 48.1425L11.6874 49.485L4.58489 56.585C4.39907 56.7708 4.25167 56.9914 4.1511 57.2342C4.05054 57.477 3.99878 57.7372 3.99878 58C3.99878 58.2628 4.05054 58.523 4.1511 58.7658C4.25167 59.0086 4.39907 59.2292 4.58489 59.415C4.96017 59.7903 5.46916 60.0011 5.99989 60.0011C6.26268 60.0011 6.5229 59.9493 6.76568 59.8488C7.00847 59.7482 7.22907 59.6008 7.41489 59.415L14.5149 52.3125L15.8574 53.6575C16.6003 54.4005 17.4823 54.99 18.453 55.3921C19.4237 55.7943 20.4642 56.0013 21.5149 56.0013C22.5656 56.0013 23.6061 55.7943 24.5768 55.3921C25.5475 54.99 26.4295 54.4005 27.1724 53.6575L32.9999 47.8275L34.5849 49.415C34.7707 49.6008 34.9913 49.7482 35.2341 49.8488C35.4769 49.9493 35.7371 50.0011 35.9999 50.0011C36.2627 50.0011 36.5229 49.9493 36.7657 49.8488C37.0085 49.7482 37.2291 49.6008 37.4149 49.415C37.6007 49.2292 37.7481 49.0086 37.8487 48.7658C37.9492 48.523 38.001 48.2628 38.001 48C38.001 47.7372 37.9492 47.477 37.8487 47.2342C37.7481 46.9914 37.6007 46.7708 37.4149 46.585L32.8274 42L37.4149 37.415C37.6008 37.2292 37.7484 37.0087 37.849 36.7659C37.9497 36.5231 38.0015 36.2628 38.0015 36C38.0015 35.7372 37.9497 35.4769 37.849 35.2341C37.7484 34.9913 37.6008 34.7707 37.4149 34.585ZM24.3424 50.835C23.5923 51.5846 22.5753 52.0056 21.5149 52.0056C20.4545 52.0056 19.4375 51.5846 18.6874 50.835L13.1724 45.3125C12.4228 44.5624 12.0017 43.5454 12.0017 42.485C12.0017 41.4246 12.4228 40.4076 13.1724 39.6575L18.9999 33.8275L30.1724 45L24.3424 50.835ZM59.4149 4.58499C59.2291 4.39903 59.0086 4.25152 58.7658 4.15087C58.523 4.05022 58.2627 3.99841 57.9999 3.99841C57.7371 3.99841 57.4768 4.05022 57.234 4.15087C56.9912 4.25152 56.7706 4.39903 56.5849 4.58499L49.4849 11.6875L48.1424 10.3425C46.6404 8.84486 44.6059 8.00386 42.4849 8.00386C40.3639 8.00386 38.3294 8.84486 36.8274 10.3425L30.9999 16.1725L29.4149 14.585C29.0396 14.2097 28.5306 13.9989 27.9999 13.9989C27.4692 13.9989 26.9602 14.2097 26.5849 14.585C26.2096 14.9603 25.9988 15.4693 25.9988 16C25.9988 16.5307 26.2096 17.0397 26.5849 17.415L46.5849 37.415C46.7707 37.6008 46.9913 37.7482 47.2341 37.8488C47.4769 37.9493 47.7371 38.0011 47.9999 38.0011C48.2627 38.0011 48.5229 37.9493 48.7657 37.8488C49.0085 37.7482 49.2291 37.6008 49.4149 37.415C49.6007 37.2292 49.7481 37.0086 49.8487 36.7658C49.9492 36.523 50.001 36.2628 50.001 36C50.001 35.7372 49.9492 35.477 49.8487 35.2342C49.7481 34.9914 49.6007 34.7708 49.4149 34.585L47.8274 33L53.6574 27.1725C54.4005 26.4296 54.9899 25.5476 55.392 24.5769C55.7942 23.6062 56.0012 22.5657 56.0012 21.515C56.0012 20.4643 55.7942 19.4238 55.392 18.4531C54.9899 17.4824 54.4005 16.6004 53.6574 15.8575L52.3124 14.515L59.4149 7.41499C59.6008 7.22924 59.7484 7.00866 59.849 6.76587C59.9497 6.52307 60.0015 6.26282 60.0015 5.99999C60.0015 5.73716 59.9497 5.4769 59.849 5.23411C59.7484 4.99131 59.6008 4.77073 59.4149 4.58499ZM50.8274 24.335L44.9999 30.1725L33.8274 19L39.6574 13.1725C40.4075 12.4229 41.4245 12.0018 42.4849 12.0018C43.5453 12.0018 44.5623 12.4229 45.3124 13.1725L50.8274 18.6725C51.2008 19.0442 51.4971 19.4859 51.6993 19.9725C51.9015 20.459 52.0056 20.9806 52.0056 21.5075C52.0056 22.0343 51.9015 22.556 51.6993 23.0425C51.4971 23.529 51.2008 23.9708 50.8274 24.3425V24.335Z" fill="#A5FBAC"/>
</svg>
