<svg width="40" height="41" viewBox="0 0 40 41" fill="none" xmlns="http://www.w3.org/2000/svg">
<path d="M35 16.75C35 17.0815 34.8683 17.3995 34.6339 17.6339C34.3995 17.8683 34.0815 18 33.75 18C33.4185 18 33.1005 17.8683 32.8661 17.6339C32.6317 17.3995 32.5 17.0815 32.5 16.75V9.76875L22.1359 20.1344C21.9014 20.3689 21.5833 20.5007 21.2516 20.5007C20.9199 20.5007 20.6017 20.3689 20.3672 20.1344C20.1326 19.8998 20.0009 19.5817 20.0009 19.25C20.0009 18.9183 20.1326 18.6002 20.3672 18.3656L30.7312 8H23.75C23.4185 8 23.1005 7.8683 22.8661 7.63388C22.6317 7.39946 22.5 7.08152 22.5 6.75C22.5 6.41848 22.6317 6.10054 22.8661 5.86612C23.1005 5.6317 23.4185 5.5 23.75 5.5H33.75C34.0815 5.5 34.3995 5.6317 34.6339 5.86612C34.8683 6.10054 35 6.41848 35 6.75V16.75ZM28.75 20.5C28.4185 20.5 28.1005 20.6317 27.8661 20.8661C27.6317 21.1005 27.5 21.4185 27.5 21.75V33H7.5V13H18.75C19.0815 13 19.3995 12.8683 19.6339 12.6339C19.8683 12.3995 20 12.0815 20 11.75C20 11.4185 19.8683 11.1005 19.6339 10.8661C19.3995 10.6317 19.0815 10.5 18.75 10.5H7.5C6.83696 10.5 6.20107 10.7634 5.73223 11.2322C5.26339 11.7011 5 12.337 5 13V33C5 33.663 5.26339 34.2989 5.73223 34.7678C6.20107 35.2366 6.83696 35.5 7.5 35.5H27.5C28.163 35.5 28.7989 35.2366 29.2678 34.7678C29.7366 34.2989 30 33.663 30 33V21.75C30 21.4185 29.8683 21.1005 29.6339 20.8661C29.3995 20.6317 29.0815 20.5 28.75 20.5Z" fill="#A5FBAC"/>
</svg>
