<svg width="48" height="56" viewBox="0 0 48 56" fill="none" xmlns="http://www.w3.org/2000/svg">
<path d="M38.0001 36C36.666 35.9995 35.3453 36.2668 34.1163 36.786C32.8873 37.3052 31.7749 38.0657 30.8451 39.0224L19.3201 31.615C20.2267 29.2902 20.2267 26.7097 19.3201 24.385L30.8451 16.9775C32.5763 18.7507 34.9042 19.8181 37.3775 19.9725C39.8509 20.127 42.2935 19.3575 44.2318 17.8133C46.1701 16.2691 47.466 14.0603 47.8682 11.6149C48.2704 9.16959 47.7502 6.66202 46.4087 4.57838C45.0671 2.49474 42.9996 0.983468 40.607 0.337573C38.2145 -0.308321 35.6674 -0.0428249 33.4595 1.08259C31.2515 2.208 29.5402 4.11315 28.6571 6.42868C27.7741 8.7442 27.7823 11.3051 28.6801 13.615L17.1551 21.0225C15.7673 19.5976 13.9861 18.6191 12.0392 18.2118C10.0923 17.8046 8.06825 17.9871 6.22568 18.7362C4.38311 19.4853 2.80577 20.7668 1.69531 22.417C0.584843 24.0671 -0.00830078 26.0109 -0.00830078 28C-0.00830078 29.989 0.584843 31.9328 1.69531 33.583C2.80577 35.2331 4.38311 36.5146 6.22568 37.2637C8.06825 38.0128 10.0923 38.1953 12.0392 37.7881C13.9861 37.3808 15.7673 36.4023 17.1551 34.9775L28.6801 42.3849C27.908 44.3763 27.7938 46.5625 28.3541 48.6234C28.9144 50.6844 30.1198 52.5118 31.7939 53.8381C33.4679 55.1644 35.5226 55.9199 37.6571 55.9939C39.7915 56.068 41.8937 55.4567 43.6556 54.2497C45.4175 53.0426 46.7467 51.3031 47.4485 49.2859C48.1503 47.2688 48.1879 45.0799 47.5557 43.0399C46.9235 40.9998 45.6548 39.2158 43.9353 37.949C42.2158 36.6822 40.1359 35.9992 38.0001 36ZM38.0001 3.99995C39.1868 3.99995 40.3468 4.35185 41.3335 5.01113C42.3202 5.67042 43.0893 6.60749 43.5434 7.70385C43.9975 8.80021 44.1163 10.0066 43.8848 11.1705C43.6533 12.3344 43.0819 13.4035 42.2428 14.2426C41.4036 15.0817 40.3345 15.6532 39.1707 15.8847C38.0068 16.1162 36.8004 15.9974 35.704 15.5432C34.6077 15.0891 33.6706 14.3201 33.0113 13.3334C32.352 12.3467 32.0001 11.1866 32.0001 9.99995C32.0001 8.40865 32.6323 6.88253 33.7575 5.75731C34.8827 4.63209 36.4088 3.99995 38.0001 3.99995ZM10.0001 34C8.81343 34 7.65339 33.6481 6.66669 32.9888C5.68 32.3295 4.91096 31.3924 4.45684 30.2961C4.00271 29.1997 3.88389 27.9933 4.1154 26.8294C4.34691 25.6655 4.91836 24.5964 5.75747 23.7573C6.59659 22.9182 7.66568 22.3468 8.82957 22.1152C9.99346 21.8837 11.1999 22.0025 12.2962 22.4567C13.3926 22.9108 14.3296 23.6798 14.9889 24.6665C15.6482 25.6532 16.0001 26.8133 16.0001 28C16.0001 29.5913 15.368 31.1174 14.2428 32.2426C13.1175 33.3678 11.5914 34 10.0001 34ZM38.0001 52C36.8134 52 35.6534 51.6481 34.6667 50.9888C33.68 50.3295 32.911 49.3924 32.4568 48.2961C32.0027 47.1997 31.8839 45.9933 32.1154 44.8294C32.3469 43.6655 32.9184 42.5964 33.7575 41.7573C34.5966 40.9182 35.6657 40.3467 36.8296 40.1152C37.9935 39.8837 39.1999 40.0025 40.2962 40.4567C41.3926 40.9108 42.3296 41.6798 42.9889 42.6665C43.6482 43.6532 44.0001 44.8133 44.0001 46C44.0001 47.5912 43.368 49.1174 42.2428 50.2426C41.1175 51.3678 39.5914 52 38.0001 52Z" fill="#A5FBAC"/>
</svg>
