<svg width="92" height="16" viewBox="0 0 92 16" fill="none" xmlns="http://www.w3.org/2000/svg">
<path d="M86.6257 15.5304C85.6574 15.5304 84.8164 15.3711 84.1029 15.0526C83.4021 14.7213 82.8542 14.2562 82.4592 13.6574C82.0769 13.0458 81.8794 12.3258 81.8667 11.4976H84.6189C84.5934 12.0838 84.7591 12.5425 85.1158 12.8737C85.4726 13.205 85.9759 13.3707 86.6257 13.3707C87.0717 13.3707 87.4221 13.2879 87.6769 13.1222C87.9445 12.9438 88.0783 12.7017 88.0783 12.3959C88.0783 12.1666 87.9891 11.9754 87.8107 11.8225C87.6323 11.6696 87.403 11.5486 87.1227 11.4594C86.8424 11.3702 86.4537 11.2683 85.9568 11.1536C85.1541 10.9625 84.4979 10.7714 83.9882 10.5802C83.4785 10.3764 83.0326 10.0514 82.6503 9.60548C82.2808 9.14678 82.096 8.5288 82.096 7.75156C82.096 7.0635 82.2744 6.47101 82.6312 5.97408C83.0007 5.47715 83.5168 5.10127 84.1793 4.84643C84.8419 4.57886 85.6128 4.44507 86.492 4.44507C87.8044 4.44507 88.8301 4.76361 89.5691 5.4007C90.3209 6.02505 90.7477 6.9106 90.8496 8.05736H88.0974C88.0719 7.59865 87.9063 7.24188 87.6005 6.98705C87.2947 6.73221 86.8933 6.6048 86.3964 6.6048C85.9759 6.6048 85.6446 6.68762 85.4025 6.85326C85.1732 7.0189 85.0585 7.25463 85.0585 7.56043C85.0585 7.78978 85.1477 7.98091 85.3261 8.13381C85.5045 8.27397 85.7275 8.38227 85.995 8.45872C86.2753 8.53517 86.6576 8.61799 87.1418 8.70719C87.9318 8.86009 88.588 9.0321 89.1104 9.22323C89.6328 9.40161 90.0851 9.72016 90.4674 10.1789C90.8496 10.6376 91.0408 11.2683 91.0408 12.071C91.0408 12.7846 90.8624 13.4025 90.5056 13.9249C90.1616 14.4473 89.6583 14.8487 88.9957 15.129C88.3331 15.3966 87.5431 15.5304 86.6257 15.5304Z" fill="#F8EFF9"/>
<path d="M71.1123 1.15771H74.0939V6.10789L73.941 9.16591L75.7949 6.73861L77.5533 4.67444H81.3376L77.7444 8.49697L81.8727 15.3011H78.3942L75.6611 10.714L74.0939 12.3768V15.3011H71.1123V1.15771Z" fill="#F8EFF9"/>
<path d="M65.9399 8.76453C65.9399 8.21663 65.7998 7.77704 65.5194 7.44575C65.2391 7.10173 64.8696 6.92971 64.4109 6.92971C63.914 6.92971 63.4616 7.08261 63.0539 7.38841C62.6589 7.68148 62.2512 8.16566 61.8307 8.84098V15.301H58.8491V4.67442H61.7351L61.7925 5.87852C62.2384 5.39433 62.7354 5.03756 63.2833 4.80821C63.8311 4.56612 64.4109 4.44507 65.0225 4.44507C65.8252 4.44507 66.5197 4.61708 67.1058 4.96111C67.6919 5.30514 68.1379 5.78932 68.4437 6.41367C68.7622 7.02527 68.9215 7.74518 68.9215 8.5734V15.301H65.9399V8.76453Z" fill="#F8EFF9"/>
<path d="M53.6044 4.67438H56.586V15.301H53.6044V4.67438ZM53.4897 0.469604H56.6624V3.26005H53.4897V0.469604Z" fill="#F8EFF9"/>
<path d="M43.043 1.96033H46.1966V12.7207H52.2744V15.301H43.043V1.96033Z" fill="#F8EFF9"/>
<path d="M31.8606 15.5304C30.7393 15.5304 29.7709 15.3265 28.9555 14.9188C28.1527 14.5111 27.5539 13.9249 27.1589 13.1604C26.7639 12.3959 26.5982 11.4976 26.662 10.4656H29.7391C29.6881 11.2301 29.8538 11.8353 30.236 12.2813C30.6183 12.7272 31.1598 12.9502 31.8606 12.9502C32.4212 12.9502 32.8608 12.8228 33.1794 12.5679C33.5107 12.3004 33.6763 11.95 33.6763 11.5168C33.6763 11.2237 33.568 10.9816 33.3514 10.7905C33.1475 10.5866 32.8799 10.4273 32.5486 10.3127C32.2301 10.1852 31.7841 10.0451 31.2108 9.89218C30.3188 9.66283 29.5798 9.42073 28.9937 9.1659C28.4076 8.89832 27.9043 8.49058 27.4838 7.94269C27.0633 7.39479 26.8531 6.66214 26.8531 5.74473C26.8531 4.92926 27.0506 4.22209 27.4456 3.62323C27.8533 3.01163 28.4267 2.54655 29.1657 2.22801C29.9047 1.89672 30.7712 1.73108 31.765 1.73108C32.7844 1.73108 33.6763 1.91583 34.4408 2.28535C35.2053 2.64211 35.7978 3.16453 36.2183 3.85258C36.6388 4.5279 36.8617 5.32426 36.8872 6.24166H33.7527C33.74 5.6428 33.5552 5.17135 33.1985 4.82733C32.8417 4.4833 32.3639 4.31129 31.765 4.31129C31.2554 4.31129 30.8476 4.43233 30.5418 4.67443C30.2488 4.91652 30.1022 5.24143 30.1022 5.64917C30.1022 5.94223 30.2042 6.17795 30.408 6.35634C30.6119 6.53472 30.8667 6.68125 31.1725 6.79593C31.4783 6.89786 31.9116 7.01891 32.4722 7.15907C33.3896 7.38842 34.1414 7.63051 34.7275 7.88535C35.3264 8.14018 35.8424 8.56066 36.2756 9.14678C36.7088 9.72016 36.9254 10.5102 36.9254 11.5168C36.9254 12.3322 36.7216 13.0458 36.3138 13.6574C35.9061 14.2562 35.32 14.7213 34.5555 15.0526C33.791 15.3711 32.8927 15.5304 31.8606 15.5304Z" fill="#F8EFF9"/>
<path d="M13.1235 1.96033H16.7549L21.9727 11.3064L21.5331 6.14599V1.96033H24.6867V15.301H21.0553L15.8184 5.93576L16.2771 11.1153V15.301H13.1235V1.96033Z" fill="#F8EFF9"/>
<path d="M6.14062 15.5304C5.01935 15.5304 4.05097 15.3265 3.2355 14.9188C2.43277 14.5111 1.83391 13.9249 1.43891 13.1604C1.04392 12.3959 0.878275 11.4976 0.941984 10.4656H4.01912C3.96815 11.2301 4.13379 11.8353 4.51605 12.2813C4.8983 12.7272 5.43982 12.9502 6.14062 12.9502C6.70126 12.9502 7.14085 12.8228 7.45939 12.5679C7.79068 12.3004 7.95632 11.95 7.95632 11.5168C7.95632 11.2237 7.84802 10.9816 7.63141 10.7905C7.42754 10.5866 7.15996 10.4273 6.82868 10.3127C6.51013 10.1852 6.06417 10.0451 5.49079 9.89218C4.59887 9.66283 3.85985 9.42073 3.27373 9.1659C2.6876 8.89832 2.18431 8.49058 1.76383 7.94269C1.34335 7.39479 1.13311 6.66214 1.13311 5.74473C1.13311 4.92926 1.33061 4.22209 1.7256 3.62323C2.13334 3.01163 2.70672 2.54655 3.44574 2.22801C4.18476 1.89672 5.0512 1.73108 6.04506 1.73108C7.0644 1.73108 7.95632 1.91583 8.72083 2.28535C9.48533 2.64211 10.0778 3.16453 10.4983 3.85258C10.9188 4.5279 11.1418 5.32426 11.1672 6.24166H8.03277C8.02003 5.6428 7.83528 5.17135 7.47851 4.82733C7.12174 4.4833 6.64392 4.31129 6.04506 4.31129C5.53539 4.31129 5.12765 4.43233 4.82185 4.67443C4.52879 4.91652 4.38226 5.24143 4.38226 5.64917C4.38226 5.94223 4.48419 6.17795 4.68806 6.35634C4.89193 6.53472 5.14676 6.68125 5.45257 6.79593C5.75837 6.89786 6.19159 7.01891 6.75223 7.15907C7.66963 7.38842 8.4214 7.63051 9.00752 7.88535C9.60638 8.14018 10.1224 8.56066 10.5556 9.14678C10.9889 9.72016 11.2055 10.5102 11.2055 11.5168C11.2055 12.3322 11.0016 13.0458 10.5939 13.6574C10.1861 14.2562 9.60001 14.7213 8.8355 15.0526C8.071 15.3711 7.1727 15.5304 6.14062 15.5304Z" fill="#F8EFF9"/>
</svg>
