<svg width="56" height="56" viewBox="0 0 56 56" fill="none" xmlns="http://www.w3.org/2000/svg">
<path d="M33.4149 30.585C33.2291 30.399 33.0086 30.2515 32.7658 30.1509C32.523 30.0502 32.2627 29.9984 31.9999 29.9984C31.7371 29.9984 31.4768 30.0502 31.234 30.1509C30.9912 30.2515 30.7706 30.399 30.5849 30.585L25.9999 35.1725L20.8274 30L25.4149 25.415C25.7902 25.0397 26.001 24.5307 26.001 24C26.001 23.4693 25.7902 22.9603 25.4149 22.585C25.0396 22.2097 24.5306 21.9989 23.9999 21.9989C23.4692 21.9989 22.9602 22.2097 22.5849 22.585L17.9999 27.1725L13.4149 22.585C13.0396 22.2097 12.5306 21.9989 11.9999 21.9989C11.4692 21.9989 10.9602 22.2097 10.5849 22.585C10.2096 22.9603 9.99878 23.4693 9.99878 24C9.99878 24.5307 10.2096 25.0397 10.5849 25.415L12.1724 27L6.34239 32.8275C5.59933 33.5704 5.00989 34.4524 4.60774 35.4231C4.20559 36.3938 3.9986 37.4343 3.9986 38.485C3.9986 39.5357 4.20559 40.5762 4.60774 41.5469C5.00989 42.5176 5.59933 43.3996 6.34239 44.1425L7.68739 45.485L0.584892 52.585C0.399071 52.7708 0.25167 52.9914 0.151105 53.2342C0.0505394 53.477 -0.0012207 53.7372 -0.0012207 54C-0.0012207 54.2628 0.0505394 54.523 0.151105 54.7658C0.25167 55.0086 0.399071 55.2292 0.584892 55.415C0.960173 55.7903 1.46916 56.0011 1.99989 56.0011C2.26268 56.0011 2.5229 55.9494 2.76568 55.8488C3.00847 55.7482 3.22907 55.6008 3.41489 55.415L10.5149 48.3125L11.8574 49.6575C12.6003 50.4006 13.4823 50.99 14.453 51.3922C15.4237 51.7943 16.4642 52.0013 17.5149 52.0013C18.5656 52.0013 19.6061 51.7943 20.5768 51.3922C21.5475 50.99 22.4295 50.4006 23.1724 49.6575L28.9999 43.8275L30.5849 45.415C30.7707 45.6008 30.9913 45.7482 31.2341 45.8488C31.4769 45.9494 31.7371 46.0011 31.9999 46.0011C32.2627 46.0011 32.5229 45.9494 32.7657 45.8488C33.0085 45.7482 33.2291 45.6008 33.4149 45.415C33.6007 45.2292 33.7481 45.0086 33.8487 44.7658C33.9492 44.523 34.001 44.2628 34.001 44C34.001 43.7372 33.9492 43.477 33.8487 43.2342C33.7481 42.9914 33.6007 42.7708 33.4149 42.585L28.8274 38L33.4149 33.415C33.6008 33.2293 33.7484 33.0087 33.849 32.7659C33.9497 32.5231 34.0015 32.2628 34.0015 32C34.0015 31.7372 33.9497 31.4769 33.849 31.2341C33.7484 30.9913 33.6008 30.7707 33.4149 30.585ZM20.3424 46.835C19.5923 47.5846 18.5753 48.0056 17.5149 48.0056C16.4545 48.0056 15.4375 47.5846 14.6874 46.835L9.17239 41.3125C8.42281 40.5624 8.00175 39.5454 8.00175 38.485C8.00175 37.4246 8.42281 36.4076 9.17239 35.6575L14.9999 29.8275L26.1724 41L20.3424 46.835ZM55.4149 0.585002C55.2291 0.399049 55.0086 0.251531 54.7658 0.150882C54.523 0.0502334 54.2627 -0.00157166 53.9999 -0.00157166C53.7371 -0.00157166 53.4768 0.0502334 53.234 0.150882C52.9912 0.251531 52.7706 0.399049 52.5849 0.585002L45.4849 7.6875L44.1424 6.3425C42.6404 4.84487 40.6059 4.00388 38.4849 4.00388C36.3639 4.00388 34.3294 4.84487 32.8274 6.3425L26.9999 12.1725L25.4149 10.585C25.0396 10.2097 24.5306 9.99889 23.9999 9.99889C23.4692 9.99889 22.9602 10.2097 22.5849 10.585C22.2096 10.9603 21.9988 11.4693 21.9988 12C21.9988 12.5307 22.2096 13.0397 22.5849 13.415L42.5849 33.415C42.7707 33.6008 42.9913 33.7482 43.2341 33.8488C43.4769 33.9494 43.7371 34.0011 43.9999 34.0011C44.2627 34.0011 44.5229 33.9494 44.7657 33.8488C45.0085 33.7482 45.2291 33.6008 45.4149 33.415C45.6007 33.2292 45.7481 33.0086 45.8487 32.7658C45.9492 32.523 46.001 32.2628 46.001 32C46.001 31.7372 45.9492 31.477 45.8487 31.2342C45.7481 30.9914 45.6007 30.7708 45.4149 30.585L43.8274 29L49.6574 23.1725C50.4005 22.4296 50.9899 21.5476 51.392 20.5769C51.7942 19.6062 52.0012 18.5657 52.0012 17.515C52.0012 16.4643 51.7942 15.4238 51.392 14.4531C50.9899 13.4824 50.4005 12.6004 49.6574 11.8575L48.3124 10.515L55.4149 3.415C55.6008 3.22926 55.7484 3.00868 55.849 2.76588C55.9497 2.52309 56.0015 2.26283 56.0015 2C56.0015 1.73717 55.9497 1.47692 55.849 1.23412C55.7484 0.991325 55.6008 0.770748 55.4149 0.585002ZM46.8274 20.335L40.9999 26.1725L29.8274 15L35.6574 9.1725C36.4075 8.42292 37.4245 8.00186 38.4849 8.00186C39.5453 8.00186 40.5623 8.42292 41.3124 9.1725L46.8274 14.6725C47.2008 15.0442 47.4971 15.486 47.6993 15.9725C47.9015 16.459 48.0056 16.9806 48.0056 17.5075C48.0056 18.0344 47.9015 18.556 47.6993 19.0425C47.4971 19.529 47.2008 19.9708 46.8274 20.3425V20.335Z" fill="#6963E0"/>
</svg>
