<svg width="22" height="21" viewBox="0 0 22 21" fill="none" xmlns="http://www.w3.org/2000/svg">
<path d="M21.4249 8.121C21.3341 7.84104 21.1629 7.594 20.9327 7.41063C20.7025 7.22726 20.4234 7.11566 20.1303 7.08975L14.5624 6.60974L12.3799 1.41974C12.2663 1.14742 12.0747 0.914795 11.8291 0.751174C11.5835 0.587552 11.295 0.500244 10.9999 0.500244C10.7049 0.500244 10.4164 0.587552 10.1708 0.751174C9.92524 0.914795 9.73358 1.14742 9.61995 1.41974L7.44401 6.60974L1.86964 7.09256C1.57529 7.11729 1.29481 7.22838 1.06335 7.41188C0.831886 7.59539 0.659758 7.84315 0.568546 8.1241C0.477335 8.40504 0.4711 8.70666 0.550625 8.99113C0.63015 9.27561 0.791893 9.53027 1.01557 9.72318L5.24464 13.4188L3.97714 18.9069C3.91011 19.1941 3.92924 19.4947 4.03212 19.7711C4.135 20.0475 4.31707 20.2874 4.55557 20.4609C4.79407 20.6344 5.07841 20.7337 5.37305 20.7464C5.66769 20.7592 5.95955 20.6848 6.21214 20.5326L10.9934 17.6263L15.7849 20.5326C16.0375 20.6848 16.3294 20.7592 16.624 20.7464C16.9187 20.7337 17.203 20.6344 17.4415 20.4609C17.68 20.2874 17.8621 20.0475 17.965 19.7711C18.0678 19.4947 18.087 19.1941 18.0199 18.9069L16.7534 13.4132L20.9815 9.72318C21.2052 9.5296 21.3666 9.27421 21.4455 8.98914C21.5244 8.70406 21.5172 8.40202 21.4249 8.121ZM19.9981 8.58974L15.7699 12.2797C15.5642 12.4587 15.4111 12.6905 15.3272 12.95C15.2433 13.2095 15.2317 13.487 15.2937 13.7526L16.564 19.2501L11.7762 16.3438C11.5426 16.2016 11.2744 16.1263 11.0009 16.1263C10.7274 16.1263 10.4592 16.2016 10.2256 16.3438L5.44432 19.2501L6.7062 13.7563C6.76821 13.4907 6.75664 13.2132 6.67273 12.9537C6.58881 12.6942 6.43573 12.4625 6.22995 12.2835L1.99995 8.59537C1.9996 8.59257 1.9996 8.58974 1.99995 8.58693L7.57245 8.10506C7.84451 8.08108 8.10487 7.98327 8.32543 7.82219C8.54599 7.6611 8.71838 7.44286 8.82401 7.191L10.9999 2.00756L13.1749 7.191C13.2806 7.44286 13.453 7.6611 13.6735 7.82219C13.8941 7.98327 14.1544 8.08108 14.4265 8.10506L19.9999 8.58693C19.9999 8.58693 19.9999 8.59256 19.9999 8.59349L19.9981 8.58974Z" fill="#F8EFF9"/>
</svg>
