<svg width="22" height="21" viewBox="0 0 22 21" fill="none" xmlns="http://www.w3.org/2000/svg">
<path d="M20.9843 9.72318L16.7562 13.4132L18.0228 18.9069C18.0898 19.1941 18.0707 19.4947 17.9678 19.7711C17.8649 20.0475 17.6828 20.2874 17.4443 20.4609C17.2058 20.6344 16.9215 20.7337 16.6268 20.7464C16.3322 20.7592 16.0404 20.6848 15.7878 20.5326L10.9962 17.6263L6.21495 20.5326C5.96236 20.6848 5.6705 20.7592 5.37586 20.7464C5.08122 20.7337 4.79688 20.6344 4.55838 20.4609C4.31988 20.2874 4.13781 20.0475 4.03493 19.7711C3.93205 19.4947 3.91293 19.1941 3.97995 18.9069L5.24464 13.4188L1.01557 9.72318C0.791893 9.53027 0.63015 9.27561 0.550625 8.99113C0.4711 8.70666 0.477335 8.40504 0.568546 8.1241C0.659758 7.84315 0.831886 7.59539 1.06335 7.41188C1.29481 7.22838 1.57529 7.11729 1.86964 7.09256L7.44401 6.60974L9.61995 1.41974C9.73358 1.14742 9.92524 0.914795 10.1708 0.751174C10.4164 0.587552 10.7049 0.500244 10.9999 0.500244C11.295 0.500244 11.5835 0.587552 11.8291 0.751174C12.0747 0.914795 12.2663 1.14742 12.3799 1.41974L14.5624 6.60974L20.1349 7.09256C20.4293 7.11729 20.7098 7.22838 20.9412 7.41188C21.1727 7.59539 21.3448 7.84315 21.436 8.1241C21.5272 8.40504 21.5335 8.70666 21.454 8.99113C21.3744 9.27561 21.2127 9.53027 20.989 9.72318H20.9843Z" fill="#A5FBAC"/>
</svg>
