<svg width="22" height="21" viewBox="0 0 22 21" fill="none" xmlns="http://www.w3.org/2000/svg">
<path d="M20.9843 9.72312L16.7562 13.4131L18.0228 18.9069C18.0898 19.1941 18.0707 19.4946 17.9678 19.771C17.8649 20.0474 17.6828 20.2874 17.4443 20.4608C17.2058 20.6343 16.9215 20.7336 16.6268 20.7464C16.3322 20.7591 16.0404 20.6847 15.7878 20.5325L10.9962 17.6262L6.21495 20.5325C5.96236 20.6847 5.6705 20.7591 5.37586 20.7464C5.08122 20.7336 4.79688 20.6343 4.55838 20.4608C4.31988 20.2874 4.13781 20.0474 4.03493 19.771C3.93205 19.4946 3.91293 19.1941 3.97995 18.9069L5.24464 13.4187L1.01557 9.72312C0.791893 9.53021 0.63015 9.27554 0.550625 8.99107C0.4711 8.7066 0.477335 8.40498 0.568546 8.12404C0.659758 7.84309 0.831886 7.59533 1.06335 7.41182C1.29481 7.22832 1.57529 7.11723 1.86964 7.0925L7.44401 6.60968L9.61995 1.41968C9.73358 1.14735 9.92524 0.914734 10.1708 0.751113C10.4164 0.587491 10.7049 0.500183 10.9999 0.500183C11.295 0.500183 11.5835 0.587491 11.8291 0.751113C12.0747 0.914734 12.2663 1.14735 12.3799 1.41968L14.5624 6.60968L20.1349 7.0925C20.4293 7.11723 20.7098 7.22832 20.9412 7.41182C21.1727 7.59533 21.3448 7.84309 21.436 8.12404C21.5272 8.40498 21.5335 8.7066 21.454 8.99107C21.3744 9.27554 21.2127 9.53021 20.989 9.72312H20.9843Z" fill="#6963E0"/>
</svg>
