<svg width="18" height="16" viewBox="0 0 18 16" fill="none" xmlns="http://www.w3.org/2000/svg">
<path d="M18 7.99999C18 8.1989 17.921 8.38967 17.7803 8.53032C17.6397 8.67097 17.4489 8.74999 17.25 8.74999H2.56032L8.03064 14.2194C8.10032 14.289 8.15559 14.3718 8.19331 14.4628C8.23102 14.5539 8.25043 14.6514 8.25043 14.75C8.25043 14.8485 8.23102 14.9461 8.19331 15.0372C8.15559 15.1282 8.10032 15.2109 8.03064 15.2806C7.96095 15.3503 7.87823 15.4056 7.78718 15.4433C7.69614 15.481 7.59856 15.5004 7.50001 15.5004C7.40146 15.5004 7.30388 15.481 7.21284 15.4433C7.12179 15.4056 7.03907 15.3503 6.96939 15.2806L0.219385 8.53061C0.149653 8.46096 0.0943336 8.37824 0.0565904 8.28719C0.0188472 8.19615 -0.000579834 8.09855 -0.000579834 7.99999C-0.000579834 7.90143 0.0188472 7.80383 0.0565904 7.71278C0.0943336 7.62174 0.149653 7.53902 0.219385 7.46936L6.96939 0.719365C7.11012 0.578634 7.30099 0.499573 7.50001 0.499573C7.69903 0.499573 7.8899 0.578634 8.03064 0.719365C8.17137 0.860095 8.25043 1.05097 8.25043 1.24999C8.25043 1.44901 8.17137 1.63988 8.03064 1.78061L2.56032 7.24999H17.25C17.4489 7.24999 17.6397 7.32901 17.7803 7.46966C17.921 7.61031 18 7.80108 18 7.99999Z" fill="#6963E0"/>
</svg>
