<svg width="48" height="50" viewBox="0 0 48 50" fill="none" xmlns="http://www.w3.org/2000/svg">
<path d="M44 0H4C2.93913 0 1.92172 0.421427 1.17157 1.17157C0.421427 1.92172 0 2.93913 0 4V18.695C0 41.0975 18.955 48.53 22.75 49.7925C23.5605 50.0681 24.4395 50.0681 25.25 49.7925C29.05 48.53 48 41.0975 48 18.695V4C48 2.93913 47.5786 1.92172 46.8284 1.17157C46.0783 0.421427 45.0609 0 44 0ZM44 18.6975C44 38.3025 27.4125 44.8525 24 45.9925C20.6175 44.865 4 38.32 4 18.6975V4H44V18.6975ZM12.585 25.415C12.2097 25.0397 11.9989 24.5307 11.9989 24C11.9989 23.4693 12.2097 22.9603 12.585 22.585C12.9603 22.2097 13.4693 21.9989 14 21.9989C14.5307 21.9989 15.0397 22.2097 15.415 22.585L20 27.17L32.585 14.585C32.7708 14.3992 32.9914 14.2518 33.2342 14.1512C33.477 14.0506 33.7372 13.9989 34 13.9989C34.2628 13.9989 34.523 14.0506 34.7658 14.1512C35.0086 14.2518 35.2292 14.3992 35.415 14.585C35.6008 14.7708 35.7482 14.9914 35.8488 15.2342C35.9494 15.477 36.0011 15.7372 36.0011 16C36.0011 16.2628 35.9494 16.523 35.8488 16.7658C35.7482 17.0086 35.6008 17.2292 35.415 17.415L21.415 31.415C21.2293 31.601 21.0087 31.7485 20.7659 31.8491C20.5231 31.9498 20.2628 32.0016 20 32.0016C19.7372 32.0016 19.4769 31.9498 19.2341 31.8491C18.9913 31.7485 18.7707 31.601 18.585 31.415L12.585 25.415Z" fill="#6963E0"/>
</svg>
