<svg width="57" height="64" viewBox="0 0 57 64" fill="none" xmlns="http://www.w3.org/2000/svg">
<path d="M28.1726 17.9278C27.4624 17.9278 26.8872 17.3526 26.8872 16.6424V1.28542C26.8872 0.575227 27.4624 0 28.1726 0C28.8828 0 29.4581 0.575227 29.4581 1.28542V16.6424C29.4581 17.3526 28.8828 17.9278 28.1726 17.9278Z" fill="#6963E0"/>
<path d="M28.1715 63.9987C27.9574 63.9987 27.7408 63.9454 27.541 63.8329L0.654381 48.6675C0.252686 48.4406 0.00267189 48.0164 0.000743755 47.5549C-0.00118438 47.0934 0.243046 46.666 0.642813 46.4353L13.8949 38.7716C14.5093 38.4162 15.296 38.6264 15.6514 39.2408C16.0068 39.8552 15.7967 40.6419 15.1822 40.9973L3.87823 47.5343L28.8045 61.5943C29.4228 61.9433 29.6413 62.7268 29.2924 63.3457C29.0565 63.7641 28.6201 64 28.1715 64V63.9987Z" fill="#6963E0"/>
<path d="M28.1733 63.9987C27.7247 63.9987 27.289 63.7635 27.0524 63.3444C26.7034 62.7261 26.922 61.942 27.5402 61.593L52.4666 47.5331L41.1625 40.996C40.5481 40.6406 40.3379 39.8546 40.6934 39.2395C41.0488 38.6251 41.8348 38.4149 42.4499 38.7703L55.702 46.434C56.1011 46.6648 56.3466 47.0922 56.344 47.5536C56.3415 48.0151 56.0921 48.4399 55.6904 48.6662L28.8038 63.8316C28.6046 63.9441 28.3873 63.9974 28.1733 63.9974V63.9987Z" fill="#6963E0"/>
<path d="M55.0593 48.8333C54.3492 48.8333 53.7739 48.258 53.7739 47.5478V16.8339C53.7739 16.1237 54.3492 15.5485 55.0593 15.5485C55.7695 15.5485 56.3448 16.1237 56.3448 16.8339V47.5478C56.3448 48.258 55.7695 48.8333 55.0593 48.8333Z" fill="#6963E0"/>
<path d="M1.28542 48.8333C0.575227 48.8333 0 48.258 0 47.5478V16.8339C0 16.1237 0.575227 15.5485 1.28542 15.5485C1.99562 15.5485 2.57085 16.1237 2.57085 16.8339V47.5478C2.57085 48.258 1.99562 48.8333 1.28542 48.8333Z" fill="#6963E0"/>
<path d="M14.5381 41.1696C13.8279 41.1696 13.2527 40.5944 13.2527 39.8842V24.3087C13.2527 23.5985 13.8279 23.0233 14.5381 23.0233C15.2483 23.0233 15.8235 23.5985 15.8235 24.3087V39.8842C15.8235 40.5944 15.2483 41.1696 14.5381 41.1696Z" fill="#6963E0"/>
<path d="M41.8072 41.1696C41.097 41.1696 40.5217 40.5944 40.5217 39.8842V24.3087C40.5217 23.5985 41.097 23.0233 41.8072 23.0233C42.5173 23.0233 43.0926 23.5985 43.0926 24.3087V39.8842C43.0926 40.5944 42.5173 41.1696 41.8072 41.1696Z" fill="#6963E0"/>
<path d="M41.8059 25.5941C41.5926 25.5941 41.3766 25.5408 41.1774 25.4289L28.1727 18.1168L15.1681 25.4289C14.5492 25.7766 13.7657 25.5575 13.4173 24.9385C13.0696 24.3196 13.2888 23.5361 13.9077 23.1878L27.5422 15.5215C27.9336 15.3017 28.4112 15.3017 28.8019 15.5215L42.4364 23.1878C43.0554 23.5355 43.2745 24.3196 42.9268 24.9385C42.691 25.3582 42.2545 25.5941 41.8053 25.5941H41.8059Z" fill="#6963E0"/>
<path d="M28.1734 48.8358C27.7241 48.8358 27.2877 48.6 27.0519 48.1803C26.7041 47.5613 26.9233 46.7779 27.5422 46.4295L41.1767 38.7633C41.7957 38.4155 42.5791 38.6347 42.9275 39.2536C43.2752 39.8726 43.056 40.656 42.4371 41.0044L28.8026 48.6707C28.6034 48.7825 28.3874 48.8358 28.174 48.8358H28.1734Z" fill="#6963E0"/>
<path d="M28.1713 48.8358C27.9579 48.8358 27.742 48.7825 27.5427 48.6707L13.9082 41.0044C13.2893 40.6567 13.0701 39.8726 13.4178 39.2536C13.7655 38.6347 14.5496 38.4155 15.1686 38.7633L28.8031 46.4295C29.422 46.7772 29.6412 47.5613 29.2935 48.1803C29.0576 48.6 28.6212 48.8358 28.1719 48.8358H28.1713Z" fill="#6963E0"/>
<path d="M28.1727 33.2848C27.9549 33.2848 27.737 33.2295 27.541 33.119L0.654381 17.9535C0.252686 17.7267 0.00267189 17.3025 0.000743755 16.841C-0.00118438 16.3795 0.243046 15.9521 0.642813 15.7214L27.5294 0.172904C27.9272 -0.0571871 28.4183 -0.0571871 28.8161 0.172904L55.7027 15.7214C56.1018 15.9521 56.3473 16.3795 56.3447 16.841C56.3422 17.3025 56.0928 17.7273 55.6911 17.9535L28.8045 33.119C28.6085 33.2295 28.3906 33.2848 28.1727 33.2848ZM3.87758 16.8198L28.1727 30.5231L52.4679 16.8198L28.1727 2.7701L3.87758 16.8198Z" fill="#6963E0"/>
<path d="M28.1726 63.9981C27.4624 63.9981 26.8872 63.4229 26.8872 62.7127V31.9987C26.8872 31.2885 27.4624 30.7133 28.1726 30.7133C28.8828 30.7133 29.4581 31.2885 29.4581 31.9987V62.7127C29.4581 63.4229 28.8828 63.9981 28.1726 63.9981Z" fill="#6963E0"/>
</svg>
