<svg width="21" height="26" viewBox="0 0 21 26" fill="none" xmlns="http://www.w3.org/2000/svg">
<g clip-path="url(#clip0_1578_5473)">
<path d="M20.8933 7.287C20.8933 7.27369 20.8926 7.26038 20.8914 7.24707C20.8912 7.24344 20.8907 7.23956 20.8905 7.23593C20.889 7.22238 20.8869 7.20883 20.8843 7.19552C20.8835 7.19189 20.8826 7.1885 20.8819 7.18487C20.8797 7.1747 20.8771 7.16478 20.8742 7.15486C20.8728 7.15002 20.8716 7.14542 20.87 7.14058C20.8661 7.12848 20.8619 7.11662 20.8571 7.10501C20.8554 7.10089 20.8535 7.09726 20.8518 7.09315C20.848 7.08419 20.8437 7.07548 20.8394 7.06701C20.8373 7.0629 20.8352 7.05878 20.833 7.05467C20.8268 7.04329 20.8201 7.03216 20.8132 7.02151C20.8116 7.01909 20.8099 7.01691 20.8085 7.01449C20.802 7.0053 20.7954 6.9961 20.7884 6.98739C20.7863 6.98448 20.7839 6.98182 20.7818 6.97892C20.7732 6.96851 20.7641 6.95811 20.7546 6.94843C20.7539 6.9477 20.7532 6.94697 20.7522 6.94625C20.7434 6.93729 20.7339 6.92882 20.7243 6.92059C20.7215 6.91817 20.7188 6.91575 20.716 6.91358C20.7065 6.90583 20.6969 6.89833 20.6867 6.89131C20.6852 6.89034 20.6841 6.88938 20.6829 6.88841C20.674 6.88236 20.665 6.87679 20.6557 6.87122L10.6855 1.01652C10.6836 1.01531 10.6814 1.01434 10.6793 1.01313C10.675 1.01071 10.6709 1.00853 10.6666 1.00611C10.6581 1.00151 10.6495 0.997397 10.6409 0.993525C10.6371 0.991831 10.6333 0.989895 10.6295 0.988201C10.6178 0.983361 10.6061 0.979004 10.5942 0.975132C10.5897 0.97368 10.5849 0.972228 10.5801 0.970776C10.5704 0.967872 10.5606 0.96521 10.5506 0.963032C10.547 0.962306 10.5437 0.961338 10.5401 0.960612C10.527 0.95795 10.5136 0.956014 10.5005 0.954562C10.4969 0.954078 10.4931 0.953836 10.4896 0.953352C10.4612 0.950689 10.4324 0.950689 10.404 0.953352C10.4004 0.953594 10.3966 0.954078 10.393 0.954562C10.3797 0.956014 10.3666 0.95795 10.3535 0.960612C10.3499 0.961338 10.3466 0.962306 10.343 0.963032C10.333 0.96521 10.3232 0.967872 10.3134 0.970776C10.3087 0.972228 10.3041 0.973438 10.2994 0.975132C10.2874 0.979004 10.2758 0.983361 10.2641 0.988201C10.2603 0.989895 10.2565 0.991831 10.2527 0.993525C10.2441 0.997397 10.2355 1.00175 10.2269 1.00611C10.2226 1.00829 10.2183 1.01071 10.2143 1.01313C10.2124 1.01434 10.2102 1.01531 10.2081 1.01652L0.237858 6.87122C0.228563 6.87655 0.219744 6.88236 0.210926 6.88817C0.209496 6.88913 0.208066 6.89034 0.206397 6.89131C0.196387 6.89833 0.186854 6.90559 0.177559 6.91333C0.174699 6.91575 0.171839 6.91817 0.168979 6.92059C0.159445 6.92882 0.150151 6.93729 0.141333 6.94601C0.140618 6.94673 0.139664 6.94746 0.138949 6.94843C0.129416 6.95811 0.120359 6.96827 0.111779 6.97868C0.109395 6.98158 0.107251 6.98424 0.104868 6.98715C0.0979559 6.99586 0.0912821 7.00481 0.0850854 7.01425C0.0834171 7.01667 0.0817489 7.01885 0.0800806 7.02127C0.0729306 7.03192 0.0664952 7.04305 0.0602985 7.05443C0.0579151 7.05854 0.0557702 7.0629 0.0536251 7.06701C0.0493351 7.07548 0.0452837 7.08419 0.041232 7.09291C0.0395637 7.09702 0.037657 7.10089 0.0359887 7.10476C0.031222 7.11638 0.0271701 7.12824 0.0231184 7.1401C0.0216884 7.14494 0.0202586 7.14954 0.0188286 7.15438C0.0159686 7.16406 0.0135853 7.17398 0.0114403 7.1839C0.0107253 7.18753 0.00977181 7.19116 0.00905681 7.19479C0.00643513 7.2081 0.00452846 7.22141 0.00309846 7.23497C0.00262179 7.23884 0.00238375 7.24271 0.00190708 7.24658C0.000715409 7.25965 0 7.27272 0 7.28579C0 7.287 0 7.28821 0 7.28966V18.8548C0 18.8548 0 18.8556 0 18.8558C0 18.8563 0 18.8568 0 18.8573C0 18.8713 0.000953249 18.8851 0.00214492 18.8986C0.00238325 18.9025 0.00286036 18.9066 0.00333703 18.9105C0.00476703 18.9226 0.0064349 18.9347 0.00881824 18.9466C0.00929491 18.9497 0.0100101 18.9529 0.0104868 18.9558C0.0131084 18.9679 0.0162069 18.9797 0.0195436 18.9913C0.0209736 18.9962 0.0224036 19.001 0.024072 19.0059C0.0274086 19.0158 0.0307456 19.0257 0.0347973 19.0354C0.0364656 19.0397 0.0383718 19.0443 0.0402785 19.0487C0.0448068 19.0589 0.0495737 19.069 0.0545787 19.0789C0.0567237 19.0831 0.059107 19.0874 0.061252 19.0915C0.0667337 19.1014 0.072454 19.1111 0.0786507 19.1206C0.0798423 19.1223 0.0807953 19.1242 0.081987 19.1259C0.0893753 19.137 0.0974787 19.1477 0.10582 19.1581C0.107965 19.161 0.110349 19.1636 0.112732 19.1665C0.120359 19.1757 0.128462 19.1849 0.137042 19.1937C0.138234 19.1949 0.139426 19.1961 0.140379 19.1973C0.149912 19.207 0.159922 19.2162 0.170171 19.2249C0.172792 19.2273 0.175653 19.2295 0.178513 19.2316C0.186854 19.2384 0.195434 19.245 0.204252 19.2513C0.207112 19.2532 0.209973 19.2554 0.212833 19.2573C0.222366 19.2638 0.232376 19.2701 0.242625 19.2759L0.248821 19.2796C0.248821 19.2796 0.249536 19.2801 0.249774 19.2803L10.2083 24.984C10.2098 24.9847 10.2109 24.9854 10.2124 24.9862H10.2129C10.2129 24.9862 10.214 24.9871 10.2148 24.9874C10.2152 24.9876 10.2157 24.9879 10.2162 24.9881C10.2193 24.9898 10.2226 24.9915 10.2257 24.9932C10.2305 24.9956 10.235 24.9983 10.2398 25.0004C10.2438 25.0024 10.2479 25.0041 10.2519 25.006C10.2527 25.0063 10.2534 25.0067 10.2541 25.007C10.2574 25.0084 10.2608 25.0101 10.2643 25.0116C10.2653 25.0121 10.2662 25.0123 10.2672 25.0128C10.2748 25.0159 10.2827 25.0188 10.2903 25.0215C10.292 25.022 10.2936 25.0227 10.2953 25.0234C10.2977 25.0242 10.2998 25.0249 10.3022 25.0256C10.3051 25.0266 10.3079 25.0273 10.3108 25.0283C10.3227 25.0319 10.3349 25.0351 10.3468 25.0377C10.3487 25.0382 10.3506 25.0387 10.3525 25.0389C10.3668 25.0418 10.3814 25.044 10.3959 25.0457C10.3976 25.0457 10.3995 25.0459 10.4011 25.0462C10.4162 25.0476 10.4314 25.0486 10.4464 25.0486C10.4464 25.0486 10.4467 25.0486 10.4469 25.0486C10.4471 25.0486 10.4471 25.0486 10.4474 25.0486C10.4624 25.0486 10.4776 25.0476 10.4927 25.0462C10.4943 25.0462 10.4962 25.0459 10.4979 25.0457C10.5124 25.0442 10.527 25.0418 10.5413 25.0389C10.5432 25.0384 10.5451 25.038 10.5468 25.0377C10.5589 25.0351 10.5708 25.0319 10.583 25.0283C10.5858 25.0273 10.5887 25.0266 10.5916 25.0259C10.5939 25.0251 10.5963 25.0244 10.5987 25.0234C10.5997 25.0229 10.6009 25.0227 10.6018 25.0222C10.6102 25.0193 10.6185 25.0162 10.6268 25.0128C10.6278 25.0125 10.6285 25.0121 10.6295 25.0118C10.633 25.0104 10.6366 25.0087 10.6399 25.007C10.6447 25.0048 10.6495 25.0029 10.6542 25.0004C10.6588 24.9983 10.6633 24.9958 10.6678 24.9934C10.6712 24.9917 10.6745 24.99 10.6778 24.9881C10.679 24.9874 10.68 24.9869 10.6812 24.9864L10.6819 24.9859C10.6819 24.9859 10.684 24.9847 10.6852 24.984L20.6443 19.2801C20.6443 19.2801 20.6447 19.2798 20.645 19.2796L20.6514 19.2759C20.6616 19.2701 20.6714 19.2638 20.6812 19.2573C20.6841 19.2554 20.6867 19.2534 20.6895 19.2513C20.6984 19.245 20.7069 19.2384 20.7155 19.2316C20.7181 19.2295 20.721 19.2273 20.7236 19.2249C20.7341 19.2159 20.7441 19.207 20.7536 19.1973C20.7548 19.1961 20.7558 19.1949 20.757 19.1937C20.7656 19.1849 20.7734 19.1757 20.7813 19.1665C20.7837 19.1639 20.7858 19.161 20.7882 19.1581C20.7965 19.1477 20.8047 19.137 20.812 19.1259C20.8132 19.1242 20.8142 19.1223 20.8154 19.1203C20.8216 19.1109 20.8273 19.1012 20.8328 19.0913C20.8352 19.0872 20.8373 19.0831 20.8394 19.0787C20.8445 19.0688 20.8495 19.0589 20.8537 19.0484C20.8557 19.0441 20.8576 19.0395 20.8592 19.0349C20.863 19.0252 20.8666 19.0155 20.8697 19.0056C20.8714 19.0008 20.8728 18.9959 20.8742 18.9911C20.8776 18.9792 20.8807 18.9674 20.8833 18.9553C20.884 18.9524 20.8845 18.9492 20.885 18.9463C20.8874 18.9345 20.889 18.9224 20.8905 18.91C20.8909 18.9061 20.8914 18.9023 20.8916 18.8984C20.8928 18.8846 20.8938 18.8708 20.8938 18.8568C20.8938 18.8563 20.8938 18.8556 20.8938 18.8551C20.8938 18.8548 20.8938 18.8544 20.8938 18.8541V7.28893C20.8938 7.28893 20.8938 7.28676 20.8938 7.28579L20.8933 7.287ZM0.95286 8.11903L4.91373 10.3876V15.6906L0.95286 18.0165V8.11903ZM10.4464 7.77344L14.531 10.1054L10.4464 12.445L6.36185 10.1054L10.4464 7.77344ZM5.86707 10.9336L9.96975 13.2835V18.0291L5.86707 15.6867V10.9336ZM10.9231 18.0291V13.2835L15.0258 10.9336V15.6867L10.9231 18.0291ZM15.9791 15.6906V10.3876L19.94 8.11903V18.0165L15.9791 15.6906ZM15.5022 9.54955L10.9231 6.93512V2.27473L19.4557 7.28506L15.5022 9.54931V9.54955ZM9.96975 2.27473V6.93512L5.39064 9.54955L1.43715 7.2853L9.96975 2.27497V2.27473ZM5.39374 16.5269L9.96975 19.1397V23.7374L1.43715 18.8505L5.3935 16.5272L5.39374 16.5269ZM10.9231 23.7371V19.1394L15.4991 16.5267L19.4554 18.85L10.9228 23.7369L10.9231 23.7371Z" fill="#03021A"/>
</g>
<defs>
<clipPath id="clip0_1578_5473">
<rect width="20.9004" height="24.0972" fill="white" transform="translate(0 0.951355)"/>
</clipPath>
</defs>
</svg>
