<svg width="32" height="32" viewBox="0 0 32 32" fill="none" xmlns="http://www.w3.org/2000/svg">
<path d="M8.77777 5.1909C10.9156 3.76244 13.429 3 16.0002 3C19.4469 3.00364 22.7514 4.37445 25.1886 6.81163C26.6563 8.27934 27.7372 10.0616 28.3658 12H26.2413C25.8041 10.8843 25.1853 9.84095 24.4038 8.91443C22.9525 7.1938 21.0092 5.95867 18.8352 5.375C20.1598 7.29552 21.1032 9.56488 21.5989 12H19.5545C18.9436 9.30854 17.7206 6.87563 16.0002 5.01375C14.2763 6.87538 13.0552 9.30924 12.4453 12H10.4015C10.8972 9.56488 11.8405 7.29552 13.1652 5.375C10.9912 5.95867 9.04791 7.1938 7.59655 8.91443C6.81503 9.84095 6.19631 10.8843 5.75905 12H3.63086C3.73718 11.6712 3.85684 11.346 3.98975 11.0251C4.97369 8.64968 6.63993 6.61935 8.77777 5.1909Z" fill="#03021A"/>
<path d="M4.00018 21C4.65012 22.5598 5.60125 23.9858 6.8078 25.1924C8.62588 27.0105 10.9423 28.2486 13.464 28.7502C15.9858 29.2518 18.5996 28.9944 20.9751 28.0104C23.3505 27.0265 25.3808 25.3603 26.8093 23.2224C27.2796 22.5185 27.6777 21.774 28.0002 21H25.7908C25.4112 21.7416 24.9468 22.4418 24.4038 23.0856C22.9525 24.8062 21.0092 26.0413 18.8352 26.625C19.9762 24.9684 20.8343 23.0544 21.3671 21H19.2956C18.6286 23.2925 17.5046 25.3582 16.0002 26.9862C14.4956 25.3579 13.3714 23.2928 12.7044 21H10.6326C11.1653 23.0559 12.0237 24.97 13.1652 26.625C10.9912 26.0413 9.04791 24.8062 7.59655 23.0856C7.05354 22.4418 6.58912 21.7416 6.20956 21H4.00018Z" fill="#03021A"/>
<path d="M25.0709 18.864C24.6229 18.864 24.2309 18.792 23.8949 18.648C23.5589 18.4987 23.2975 18.288 23.1109 18.016C22.9295 17.744 22.8389 17.4293 22.8389 17.072V16.96C22.8389 16.9227 22.8495 16.8933 22.8709 16.872C22.8922 16.8507 22.9215 16.84 22.9589 16.84H24.1989C24.2362 16.84 24.2655 16.8507 24.2869 16.872C24.3082 16.8933 24.3189 16.9227 24.3189 16.96V17.008C24.3189 17.1573 24.3962 17.2907 24.5509 17.408C24.7109 17.52 24.9215 17.576 25.1829 17.576C25.3802 17.576 25.5215 17.536 25.6069 17.456C25.6922 17.3707 25.7349 17.2773 25.7349 17.176C25.7349 17.0587 25.6815 16.9707 25.5749 16.912C25.4682 16.8533 25.2735 16.7813 24.9909 16.696L24.7589 16.632C24.2309 16.472 23.7882 16.2587 23.4309 15.992C23.0735 15.7253 22.8949 15.3387 22.8949 14.832C22.8949 14.496 22.9855 14.2 23.1669 13.944C23.3482 13.6827 23.5962 13.4827 23.9109 13.344C24.2309 13.2053 24.5882 13.136 24.9829 13.136C25.3989 13.136 25.7749 13.2133 26.1109 13.368C26.4522 13.5227 26.7189 13.7413 26.9109 14.024C27.1082 14.3067 27.2069 14.6293 27.2069 14.992V15.064C27.2069 15.1013 27.1962 15.1307 27.1749 15.152C27.1535 15.1733 27.1242 15.184 27.0869 15.184H25.8469C25.8095 15.184 25.7802 15.1733 25.7589 15.152C25.7375 15.1307 25.7269 15.1013 25.7269 15.064V15.056C25.7269 14.896 25.6549 14.752 25.5109 14.624C25.3669 14.4907 25.1722 14.424 24.9269 14.424C24.7562 14.424 24.6202 14.4587 24.5189 14.528C24.4229 14.5973 24.3749 14.6933 24.3749 14.816C24.3749 14.912 24.4095 14.9947 24.4789 15.064C24.5535 15.128 24.6655 15.192 24.8149 15.256C24.9642 15.3147 25.1935 15.392 25.5029 15.488C25.5455 15.504 25.7322 15.5627 26.0629 15.664C26.3989 15.76 26.6789 15.9387 26.9029 16.2C27.1269 16.456 27.2389 16.768 27.2389 17.136C27.2389 17.4933 27.1482 17.8027 26.9669 18.064C26.7855 18.32 26.5322 18.5173 26.2069 18.656C25.8815 18.7947 25.5029 18.864 25.0709 18.864Z" fill="#03021A"/>
<path d="M16.8211 13.32C16.8211 13.2826 16.8317 13.2533 16.8531 13.232C16.8744 13.2106 16.9037 13.2 16.9411 13.2H18.2051C18.2424 13.2 18.2717 13.2106 18.2931 13.232C18.3144 13.2533 18.3251 13.2826 18.3251 13.32V18.68C18.3251 18.7173 18.3144 18.7466 18.2931 18.768C18.2717 18.7893 18.2424 18.8 18.2051 18.8H16.9971C16.9331 18.8 16.8851 18.7733 16.8531 18.72L15.2211 16C15.2104 15.984 15.1997 15.9786 15.1891 15.984C15.1784 15.984 15.1731 15.9946 15.1731 16.016L15.1891 18.68C15.1891 18.7173 15.1784 18.7466 15.1571 18.768C15.1357 18.7893 15.1064 18.8 15.0691 18.8H13.8051C13.7677 18.8 13.7384 18.7893 13.7171 18.768C13.6957 18.7466 13.6851 18.7173 13.6851 18.68V13.32C13.6851 13.2826 13.6957 13.2533 13.7171 13.232C13.7384 13.2106 13.7677 13.2 13.8051 13.2H15.0131C15.0771 13.2 15.1251 13.2266 15.1571 13.28L16.7811 16C16.7917 16.016 16.8024 16.024 16.8131 16.024C16.8237 16.0186 16.8291 16.0053 16.8291 15.984L16.8211 13.32Z" fill="#03021A"/>
<path d="M6.99274 18.864C6.54474 18.864 6.15274 18.792 5.81674 18.648C5.48074 18.4987 5.21941 18.288 5.03274 18.016C4.85141 17.744 4.76074 17.4293 4.76074 17.072V16.96C4.76074 16.9227 4.77141 16.8933 4.79274 16.872C4.81408 16.8507 4.84341 16.84 4.88074 16.84H6.12074C6.15808 16.84 6.18741 16.8507 6.20874 16.872C6.23008 16.8933 6.24074 16.9227 6.24074 16.96V17.008C6.24074 17.1573 6.31808 17.2907 6.47274 17.408C6.63274 17.52 6.84341 17.576 7.10474 17.576C7.30208 17.576 7.44341 17.536 7.52874 17.456C7.61408 17.3707 7.65674 17.2773 7.65674 17.176C7.65674 17.0587 7.60341 16.9707 7.49674 16.912C7.39008 16.8533 7.19541 16.7813 6.91274 16.696L6.68074 16.632C6.15274 16.472 5.71008 16.2587 5.35274 15.992C4.99541 15.7253 4.81674 15.3387 4.81674 14.832C4.81674 14.496 4.90741 14.2 5.08874 13.944C5.27008 13.6827 5.51808 13.4827 5.83274 13.344C6.15274 13.2053 6.51008 13.136 6.90474 13.136C7.32074 13.136 7.69674 13.2133 8.03274 13.368C8.37408 13.5227 8.64074 13.7413 8.83274 14.024C9.03008 14.3067 9.12874 14.6293 9.12874 14.992V15.064C9.12874 15.1013 9.11808 15.1307 9.09674 15.152C9.07541 15.1733 9.04608 15.184 9.00874 15.184H7.76874C7.73141 15.184 7.70208 15.1733 7.68074 15.152C7.65941 15.1307 7.64874 15.1013 7.64874 15.064V15.056C7.64874 14.896 7.57674 14.752 7.43274 14.624C7.28874 14.4907 7.09408 14.424 6.84874 14.424C6.67808 14.424 6.54208 14.4587 6.44074 14.528C6.34474 14.5973 6.29674 14.6933 6.29674 14.816C6.29674 14.912 6.33141 14.9947 6.40074 15.064C6.47541 15.128 6.58741 15.192 6.73674 15.256C6.88608 15.3147 7.11541 15.392 7.42474 15.488C7.46741 15.504 7.65408 15.5627 7.98474 15.664C8.32074 15.76 8.60074 15.9387 8.82474 16.2C9.04874 16.456 9.16074 16.768 9.16074 17.136C9.16074 17.4933 9.07008 17.8027 8.88874 18.064C8.70741 18.32 8.45408 18.5173 8.12874 18.656C7.80341 18.7947 7.42474 18.864 6.99274 18.864Z" fill="#03021A"/>
<path fill-rule="evenodd" clip-rule="evenodd" d="M29.75 12.25H2.25V19.75H29.75V12.25ZM1 11V21H31V11H1Z" fill="#03021A"/>
</svg>
