<svg width="30" height="30" viewBox="0 0 30 30" fill="none" xmlns="http://www.w3.org/2000/svg">
<path d="M30 11.25C30 11.5815 29.8683 11.8995 29.6339 12.1339C29.3995 12.3683 29.0815 12.5 28.75 12.5C28.4185 12.5 28.1005 12.3683 27.8661 12.1339C27.6317 11.8995 27.5 11.5815 27.5 11.25V4.26875L17.1359 14.6344C16.9014 14.8689 16.5833 15.0007 16.2516 15.0007C15.9199 15.0007 15.6017 14.8689 15.3672 14.6344C15.1326 14.3998 15.0009 14.0817 15.0009 13.75C15.0009 13.4183 15.1326 13.1002 15.3672 12.8656L25.7312 2.5H18.75C18.4185 2.5 18.1005 2.3683 17.8661 2.13388C17.6317 1.89946 17.5 1.58152 17.5 1.25C17.5 0.918479 17.6317 0.600537 17.8661 0.366117C18.1005 0.131696 18.4185 0 18.75 0H28.75C29.0815 0 29.3995 0.131696 29.6339 0.366117C29.8683 0.600537 30 0.918479 30 1.25V11.25ZM23.75 15C23.4185 15 23.1005 15.1317 22.8661 15.3661C22.6317 15.6005 22.5 15.9185 22.5 16.25V27.5H2.5V7.5H13.75C14.0815 7.5 14.3995 7.3683 14.6339 7.13388C14.8683 6.89946 15 6.58152 15 6.25C15 5.91848 14.8683 5.60054 14.6339 5.36612C14.3995 5.1317 14.0815 5 13.75 5H2.5C1.83696 5 1.20107 5.26339 0.732233 5.73223C0.263392 6.20107 0 6.83696 0 7.5V27.5C0 28.163 0.263392 28.7989 0.732233 29.2678C1.20107 29.7366 1.83696 30 2.5 30H22.5C23.163 30 23.7989 29.7366 24.2678 29.2678C24.7366 28.7989 25 28.163 25 27.5V16.25C25 15.9185 24.8683 15.6005 24.6339 15.3661C24.3995 15.1317 24.0815 15 23.75 15Z" fill="#6963E0"/>
</svg>
